<svg id="Layer_1" data-name="Layer 1" xmlns="http://www.w3.org/2000/svg" viewBox="0 0 504.88 163.23"><defs><style>.cls-1{fill:#020101;}.cls-2{fill:#4eb96f;}.cls-3{fill:#db0101;}.cls-4{fill:#595e5e;}.cls-5{fill:#657c7c;}.cls-6{fill:#91cc9d;}.cls-7{fill:#f9c80f;}.cls-8{fill:#8a4e4e;}.cls-9{fill:#443912;}.cls-10{fill:#7e5208;}.cls-11{fill:#24623b;}</style></defs><path class="cls-1" d="M492.79,296.93c-1.55-3.45-3.19-6.86-4.65-10.35-1.73-4.13-3.63-8.2-5.47-12.28a9.44,9.44,0,0,0-1.05-1.79,2.66,2.66,0,0,0-1.27-2.52c-1.09.58-1.54,1.63-2.29,2.4-2.87,2.89-5.54,5.95-8.32,8.92-3.27,3.49-6.35,7.14-9.76,10.49a10.26,10.26,0,0,0-.75.86,67,67,0,0,1-5.45,5.6,1.5,1.5,0,0,1-1.8.48c.51-.64.92-1.21,1.37-1.74,2-2.41,4.27-4.62,6.37-7,4.24-4.72,8.61-9.33,12.93-14,1.81-1.95,3.64-3.88,5.45-5.83.42-.44.94-.86.75-1.65-1,0-1.42.71-1.85,1.27a24.57,24.57,0,0,1-2.53,2.76c-1.7,1.67-3.26,3.47-4.86,5.22-2.15,2.34-4.35,4.65-6.45,7.05a21.93,21.93,0,0,0-1.65,1.54c-1.66,2.36-3.83,4.27-5.71,6.45-1.42,1.63-3.26,2.85-4.56,4.64a2,2,0,0,0-.43,1.65,4.15,4.15,0,0,1-2.66.47l-39.95,0a5.38,5.38,0,0,0-2,0,3.42,3.42,0,0,1-3-4.15,5.57,5.57,0,0,1,1-2c1.43-1.79,3.06-3.39,4.64-5.05,5.06-5.31,10.22-10.54,15.2-15.93,6.65-7.19,13.55-14.14,20.2-21.32,6.39-6.9,12.95-13.64,19.44-20.46a2.31,2.31,0,0,0,.54-2.88c-4.72-11.21-9.34-22.45-14.06-33.66a45.08,45.08,0,0,0-1.94-4.18c.22-1.21-.61-2-1.13-2.94-.89,2.79-1.63,5.57-2.36,8.34a3.66,3.66,0,0,1-1.34,2.11,3.74,3.74,0,0,1-2.59.67h-53a12.68,12.68,0,0,0-1.95,0c-1.75.27-3.49.71-4.2,2.59-.59,1.55-1,3.18-1.46,4.72a2.06,2.06,0,0,0,1.73.66c1.31,0,2.61.09,3.92.09H440c.49,0,1,0,1.46,0,.55.44,0,.89,0,1.33a16.66,16.66,0,0,1-.29,2.09,1,1,0,0,0-.53.78c-.55,2.72-1.35,5.37-2.06,8-1.89,7.13-3.74,14.28-5.72,21.39-.79,2.81-.11,2.64-3.47,2.64H374.76A4.75,4.75,0,0,0,370,246c-.15.47-.27.94-.39,1.42-.4,1.52-.77,3-1.18,4.56q-3,11.07-6,22.13-1.39,5.17-2.75,10.37a6.92,6.92,0,0,1-2.72,3.93c-.62.44-1.24.88-1.84,1.35-5.51,4.38-11,8.79-16.52,13.16s-11.22,8.87-16.85,13.28a4.67,4.67,0,0,1-2.09,1.23,6.35,6.35,0,0,0-3.56,2.07l-5.1,4a1.71,1.71,0,0,1,.1-1.37q6-22.41,12-44.81c.28-1.05.5-2.12.75-3.17.61-.61.39-1.38.5-2.09a5,5,0,0,0-1.86-.13q-33.09,0-66.17,0a65,65,0,0,1-8.83-1,5.56,5.56,0,0,0-3-2.58,57.91,57.91,0,0,0-5.46-5.28c0-.44-.32-.64-.57-.89s-.22-.63.07-.92a.37.37,0,0,1,.27.05c.43.63,1.09.36,1.64.37,4.35,0,8.7,0,13.05,0q35.94,0,71.9,0c.62,0,1.31.27,1.85-.28a3.23,3.23,0,0,0,.26-.57c1.1-4.08,2.21-8.15,3.27-12.23s2.15-7.88,3-11.87a13.14,13.14,0,0,1,.84-3.36c.14-.23.38-.44.42-.69.33-1.84.95-3.6,1.37-5.42.22-.93.88-1.77.58-2.8A51,51,0,0,0,339,218.1q5.51-20.57,11-41.14c.59-.74.41-1.65.57-2.47a3.27,3.27,0,0,0-1.65-.16h-254a18.31,18.31,0,0,0-2,0c-2.72.3-3.54,1.34-3.9,3.2a14,14,0,0,0-.28,2.74V260.1c0,1.36.08,1.43,1.51,1.49,1.58.07,3.16.11,4.73.11h65.62l1.14,0,3,1.37a1.6,1.6,0,0,1-.14,1.87,6.86,6.86,0,0,0-2.12,2.75c.77,1.2.77,1.2-.11,2.2a2.3,2.3,0,0,0-.66.91,2,2,0,0,0-1.1.17c-.5,1.61-.5,1.61-2.22,1.62H87.53a4.21,4.21,0,0,1-3-.87,2.24,2.24,0,0,0-2.15-.39c-3.14-.06-6-1.22-9.13-1.73v-109h2.49q138.48,0,277,.06c28.28,0,56.56,0,84.84.11,4,0,8.05-.09,12.07,0,11.42.22,22.85.11,34.27.1a5.61,5.61,0,0,1,2.78.92,3.22,3.22,0,0,0,.16,2.34c1.18,2.85,2.32,5.71,3.48,8.57q2.63,6.56,5.27,13.1c.67,1.65,1.42,3.27,2.08,4.93.39,1,1.34.8,2,1,.47.17.83-.36.92-.89,2.39-2.15,4.57-4.5,6.74-6.86,4.33-4.72,8.82-9.31,13.26-13.93,2.48-2.59,5-5.15,7.44-7.77a4.33,4.33,0,0,1,3.45-1.45q20.71.06,41.42,0a3.75,3.75,0,0,1,2.86.89c0,.22.07.34.31.32l0,0a5.27,5.27,0,0,0-.34,1.41c.1,1.64-.8,2.77-1.82,3.86l-4,4.27-10.13,10.83c-2.82,3-5.61,6-8.44,9.06l-10.26,10.93q-4.51,4.81-9,9.65c-4,4.3-8,8.54-12.07,12.81-1.49,1.58-3,3.18-4.45,4.76a2.47,2.47,0,0,0-.54,3c.91,2,1.73,4.1,2.57,6.16,2.2,5.43,4.34,10.89,6.59,16.3q3.21,7.75,6.35,15.53c2.4,5.93,4.84,11.85,7.19,17.81.73,1.87,1.51,3.72,2.28,5.57a3.38,3.38,0,0,1-.08,3.42,2.43,2.43,0,0,0-.35,1.69,3.13,3.13,0,0,1-2.32.5H500.35c-.92,0-1.84,0-2.76,0l-2.65-.34a1,1,0,0,1-.22-.09,1.18,1.18,0,0,0-.93-.71.85.85,0,0,1-.14-.19.29.29,0,0,0-.28-.38c-.12-.21-.23-.42-.34-.63C493.1,297.11,493,297,492.79,296.93Zm45.35-1.06c-.24-.62-.43-1.17-.65-1.71-1.1-2.67-2.23-5.31-3.29-8-2.06-5.19-4.14-10.39-6.18-15.59-5.12-13-10.54-25.86-15.87-38.76a1.88,1.88,0,0,1,.45-2.31c5.86-6.36,11.95-12.49,17.68-19,6.49-7.32,13.51-14.16,20.09-21.4,4.58-5,9.36-9.87,14-14.83,2.79-3,5.51-6,8.27-9,.22-.24.47-.47.19-.89-.23,0-.5-.07-.76-.07q-20.16,0-40.32,0a2.1,2.1,0,0,0-1.72.73c-.93,1.06-1.85,2.13-2.81,3.16-6.62,7-13.5,13.71-19.9,20.91-2.53,2.84-5.22,5.54-7.85,8.3-.32.33-.57.82-1.2.76a3.68,3.68,0,0,1-.88-1.68c-4.18-10.14-8.37-20.28-12.18-30.57-.6-1.62-.63-1.63-2.32-1.62l-39.5,0c-.4,0-.87-.14-1.18.26a1.93,1.93,0,0,0,.3,1.27c2,4.28,3.46,8.8,5.28,13.16,5.05,12.07,10.05,24.17,15.11,36.25,1.91,4.55,3.6,9.2,5.46,13.77a1.76,1.76,0,0,1-.43,2.18c-.79.81-1.47,1.73-2.25,2.56-6.83,7.31-13.88,14.42-20.65,21.79-7.21,7.84-14.87,15.27-22,23.16-4.93,5.43-10.14,10.61-15.22,15.92-.32.34-.79.6-.83,1.21a3.3,3.3,0,0,0,2,.25q18.6,0,37.21,0c3.94,0,2.77.49,5.39-2.37,5.32-5.82,10.86-11.43,16.08-17.34,3.89-4.4,8-8.61,12-12.9a3.53,3.53,0,0,1,1.39-1.18c.26.49.51.91.7,1.34,2,4.63,4.23,9.17,6.18,13.83,2.4,5.77,5.2,11.36,7.76,17.06a2.27,2.27,0,0,0,2.46,1.55c12.73-.05,25.46,0,38.19,0A3.07,3.07,0,0,0,538.14,295.87Z" transform="translate(-73.22 -160.54)"/><path class="cls-1" d="M205.68,231.81a4.12,4.12,0,0,1-2-3.92c.09-3.51,0-7,.05-10.54a3,3,0,0,1,.52-2.3c2.94-1,6-.73,9-.74h25.6a15.82,15.82,0,0,0,2-.05,3.15,3.15,0,0,0,2.83-3.69,1,1,0,0,0-1.17-1.07c-1.74.09-3.44-.34-5.19-.34q-22.15-.07-44.32.3h-.65a3.47,3.47,0,0,0-3.56,2.75,6.89,6.89,0,0,0-.22,2.25q0,14.43,0,28.86c0,.76,0,1.52,0,2.29-.05,2.68-1.32,4-4,4a24.58,24.58,0,0,1-3.74-.06l-.1-1.87c-.29-.51-.62-.43-1-.08-.07.57-.15,1.14-.22,1.71a23,23,0,0,1-8.43-1.15.36.36,0,0,0-.5.25c-.23-.12-.56,0-.69-.36A1,1,0,0,0,169,247a.28.28,0,0,1-.12-.21,22,22,0,0,1-.35-4.51q0-13.89,0-27.8c0-.6.27-1.31-.36-1.8l-.23-1.51c.08-1.35.08-1.41-1-1.42-3.37,0-6.74,0-10.11,0a3.58,3.58,0,0,0-3.56,3.53c-.05.7,0,1.41,0,2.12v29c0,.6,0,1.2,0,1.79-.2,2.41-1.48,3.6-3.9,3.66-.54,0-1.09,0-1.63,0-4.66.13-9.31-.19-14,0-2.66.09-5.33.11-8,0a45.56,45.56,0,0,1-7.08-.81,35.86,35.86,0,0,1-13.91-6.41c-.33-.24-.59-.69-1.12-.45A30.09,30.09,0,0,1,95,230.91,27.61,27.61,0,0,1,92.67,223a33.17,33.17,0,0,1,0-8.27,1.43,1.43,0,0,0,.44-2l.07-.64c.43-.09.64-.26.27-.67l.21-.91a1.32,1.32,0,0,0,.63-.9,21.24,21.24,0,0,1,3.44-6.18,37.85,37.85,0,0,1,8.47-8.2,13.63,13.63,0,0,1,8.78-2.85c2.43.16,4.88,0,7.32,0l-.13.61a54.54,54.54,0,0,0-5.72.55c-.57-.13-1.16-.35-1.46.43a22,22,0,0,0-6.13,2.58,31.15,31.15,0,0,0-6.89,6.18c-6.31,8.23-7.51,17.13-3.51,26.69,2.15,5.17,6,8.91,10.56,11.89a22.18,22.18,0,0,0,10.64,3.32c3.75.28,7.5.11,11.26.13.38,0,.77,0,1-.32.33-2.35.19-10.07-.21-11.17a6.1,6.1,0,0,0-1.76-.11c-2.89,0-5.77,0-8.65-.11a14.17,14.17,0,0,1-12.88-17.25,13.75,13.75,0,0,1,13.27-11c4.35-.09,8.71-.07,13.06-.08a1.57,1.57,0,0,1,1.36.39c.2,13.06,0,26.25.12,39.38,1.78.4,10.81.35,12,0a4.68,4.68,0,0,0,.11-1.59q0-23.89,0-47.81c0-.65-.06-1.3-.09-2l-.08-.74h59.29l-.06.78c-.16,3.79-.08,7.57-.07,11.21a2,2,0,0,0,1.2.28c10.17,0,20.34,0,30.5,0a15.19,15.19,0,0,1,3.69.49,5.53,5.53,0,0,1,4.57,5.38,6.15,6.15,0,0,1-4.43,6,12.09,12.09,0,0,1-3.39.33q-15.09,0-30.18,0c-.63,0-1.3-.2-1.86.24v11.18a4,4,0,0,0,1.87.19c6.53,0,13.05-.09,19.58.06,6.3.14,10.79,3.22,13.35,9a15.43,15.43,0,0,1,1,5.75c.05,1.47.08,1.51,1.45,1.52,3.1,0,6.2,0,9.3,0a1.18,1.18,0,0,0,1.13-.44,34.69,34.69,0,0,0-1-9.23,17.25,17.25,0,0,0-4.06-8.54,18.64,18.64,0,0,0,5.55-5.29,16.35,16.35,0,0,0,3.65-11c-.2-5.87-2.94-10.33-7.33-13.93a22.12,22.12,0,0,0-2.78-1.69.3.3,0,0,0-.42-.16l-2.85-.91a.26.26,0,0,0-.4-.07,33.91,33.91,0,0,0-5.11-.52l-.14-.6c2.67,0,5.33,0,8,0a6.35,6.35,0,0,1,3.4.9c.75.45,1.52.83,2.26,1.3a2.84,2.84,0,0,0,2.23.71l.88.75c.16,1.17.94,1.87,1.95,2.72,0-.91.55-1.55,0-2.24a29.6,29.6,0,0,1,.29-4.7,11,11,0,0,0,4,.43c5,0,9.93-.06,14.9-.09l.13.86a2,2,0,0,0,.5,2.24,4,4,0,0,1,.93,2.84c0,.75,0,1.51,0,2.27,0,.37,0,.77.57,1,.8-.65,2-1,2.13-2.38l1.62-1.45c.19.68.53.33.81.1.58-.49,1-1.22,1.7-1.5a25.07,25.07,0,0,0,3.39-1.92,11.42,11.42,0,0,1,6.12-1.89c5.7.14,11.41.07,17.12,0a7.59,7.59,0,0,1,3.45.79,28.52,28.52,0,0,1,8,5.58,10.86,10.86,0,0,0,2,1.9A8.65,8.65,0,0,1,329,203a37,37,0,0,1,4.21,7.83,27.65,27.65,0,0,1,1.91,8.19,28.11,28.11,0,0,1-.62,9.34,26.88,26.88,0,0,1-5.77,11.16,28,28,0,0,1-14.13,9.11,28.41,28.41,0,0,1-13.37.53,24.56,24.56,0,0,1-9.91-3.79,4.6,4.6,0,0,0-2.72-.88l-.36-.27c-.19-1-.38-1.17-1.64-1.3-1.64-1.16-3-2.64-4.56-3.92.31-.56-.12-.8-.46-1-1-.68-1.42-.52-1.74.61a8,8,0,0,0-.32,2.24c0,1.74.07,3.48,0,5.22-.11,2-1.06,3.47-3.13,3.68-1.64.17-3.25.17-4.87.18a22.87,22.87,0,0,1-5.84-.28c-1.36-.35-2.65-.94-4.05-1.18a2.77,2.77,0,0,0-2.17.3,7.6,7.6,0,0,1-4.33,1.17q-3.58,0-7.17,0a7.26,7.26,0,0,1-3.11-.78c-.92-.43-1.84-1.16-3-.78a4.2,4.2,0,0,1-2.34-4.08,13.07,13.07,0,0,0-.6-4.93c.23-.46.08-.73-.41-.83l-.47-.85c.2-.63-.23-1-.58-1.43A8.6,8.6,0,0,0,231,233c-6,0-12,0-17.94,0a14.29,14.29,0,0,1-4.16-.65A9.48,9.48,0,0,0,205.68,231.81Zm-73.31-20.2c.5-2,.2-2.39-1.67-2.43a51.1,51.1,0,0,0-7.62.34,10.77,10.77,0,0,0-4.56,1.58,13,13,0,0,0-5.09,6.75,7.89,7.89,0,0,0,.2,6.76,3.51,3.51,0,0,1,.4,1.06,4.47,4.47,0,0,0,2.07,2.82,9.35,9.35,0,0,0,5,1.88c3.36.13,6.73.06,10.09,0,.44,0,.9,0,.89-.67a1.4,1.4,0,0,0,.44-1.33C132.44,222.82,132.63,217.21,132.37,211.61Zm130.39,32.82c-.22.2-.15.39,0,.54a.26.26,0,0,0,.41-.05c3-.11,6.09-.15,9.14,0q.54.88,1.08,0l1.1-.15c.86-.45.47-1.26.47-1.9q0-23.77,0-47.55c0-.38,0-.77,0-1.14-.05-1.21-.23-1.41-1.46-1.42-3.2,0-6.41,0-9.61,0-.43,0-.89-.06-1.09.48,0,3.37-.06,6.74-.07,10.11Q262.77,223.9,262.76,244.43Zm-78.53-39.55,18.59.06a1,1,0,0,0,.75-.23c.39-.34.31-.79.31-1.22,0-3.05,0-6.09,0-9.14a1.28,1.28,0,0,0-.31-1.13h-51.9c0,3.87-.09,7.63.06,11.32a4.24,4.24,0,0,0,2,.22c5.33,0,10.66,0,16,0,.62,0,1.31-.23,1.94.44v29.6c0,1.69,0,3.38,0,5.06a27.64,27.64,0,0,0,.15,4.88c4.12.12,8.06.22,11.89,0a3.72,3.72,0,0,0,.3-2.13q0-18,0-35.91C184,206.13,183.75,205.44,184.23,204.88Zm122.65-11.76c0-.17-.06-.15-.1,0h-4.47c-.14-.26-.28-.24-.4,0a24.27,24.27,0,0,0-14.66,6.42C280,206,277,214.09,278.84,223.73c1.93,10.11,8.28,16.44,17.66,20a22.88,22.88,0,0,0,7.54,1.13,24.65,24.65,0,0,0,16.63-5.56,25.47,25.47,0,0,0,7.86-30.62c-3-7-8.36-11.49-15.28-14.27A20,20,0,0,0,306.88,193.12Zm-48.16,44.11c.93-3.35.82-9-.14-10.37a4.38,4.38,0,0,0-1.43,5.2C257.75,233.65,258.15,235.32,258.72,237.23Z" transform="translate(-73.22 -160.54)"/><path class="cls-2" d="M225.76,312.05c-.75.43-1.46-.06-2.17-.06-.5-1.64-.63-64.6-.13-68.57,1.76-.31,3.6,0,5.59-.23a67,67,0,0,0,0-8.38c1.66-.41,1.66-.41,2,.87.06,2.42.12,4.83.18,7.28,1.76-.34,3.3.35,4.95.41l.25,2.1a6.32,6.32,0,0,0-.2,2.52v62.22c0,.38,0,.76,0,1.13a1.13,1.13,0,0,1-.06.32.6.6,0,0,1-.09.13l-.15.16c-1.55.24-3.19-.16-4.73.2a2.86,2.86,0,0,0-.11,1.37,14.23,14.23,0,0,0,0,2.61,5.09,5.09,0,0,1,0,2.51c-.51.51-1,.27-1.73.18a12.89,12.89,0,0,1-.07-4,9.15,9.15,0,0,0-.08-2.8A12.75,12.75,0,0,0,225.76,312.05Z" transform="translate(-73.22 -160.54)"/><path class="cls-3" d="M213.72,308v4c-.5.61-.92.42-1.47.35-.07-1.7-.15-3.36-.22-5a4.4,4.4,0,0,0,0-2.71,8.06,8.06,0,0,0-2.94,0l-2.34-.19V256.53h5.43V245.29a1.13,1.13,0,0,1,1.4.13V256.3l5.65.27a6.5,6.5,0,0,1,.37,2.56,6.47,6.47,0,0,0-.08,2.15c0,.86,0,1.73,0,2.6q0,19.33,0,38.67c0,.65-.06,1.3-.09,1.95-1.87.16-3.76-.13-5.73.2A17,17,0,0,0,213.72,308Z" transform="translate(-73.22 -160.54)"/><path class="cls-4" d="M497.59,299.67c.92,0,1.84,0,2.76,0h36.88a3.13,3.13,0,0,0,2.32-.5,2.43,2.43,0,0,1,.35-1.69A3.38,3.38,0,0,0,540,294c-.77-1.85-1.55-3.7-2.28-5.57-2.35-6-4.79-11.88-7.19-17.81q-3.15-7.77-6.35-15.53c-2.25-5.41-4.39-10.87-6.59-16.3-.84-2.06-1.66-4.13-2.57-6.16a2.47,2.47,0,0,1,.54-3c1.48-1.58,3-3.18,4.45-4.76,4-4.27,8.08-8.51,12.07-12.81q4.49-4.84,9-9.65l10.26-10.93c2.83-3,5.62-6.05,8.44-9.06l10.13-10.83,4-4.27c1-1.09,1.92-2.22,1.82-3.86a5.27,5.27,0,0,1,.34-1.41c1.26,1.72,1.53,3.82,2,5.8.2.84-.44,1.75-1,2.52-1.41,1.94-3.23,3.51-4.8,5.32-2.09,2.43-4.37,4.69-6.57,7-3.73,4-7.5,7.87-11.17,11.87-4.41,4.8-8.83,9.6-13.34,14.31-3.46,3.61-6.83,7.3-10.25,10.94a26.93,26.93,0,0,1-2.1,2c-1,.86-1.4,2.22-2.47,3a15.32,15.32,0,0,0-2.93,2.81,43.2,43.2,0,0,1-3.73,4c-1.37,1.33-1.14,3-.59,4.58,1,2.75,2.13,5.44,3.22,8.15l6.9,17c1.95,4.81,3.66,9.74,5.92,14.41,2.84,5.87,5,12,7.6,18a11.9,11.9,0,0,1,.61,1.86,4.26,4.26,0,0,1-3.86,5.58,11.4,11.4,0,0,1-1.31,0H500.5a7.2,7.2,0,0,1-2.56-.38,2.17,2.17,0,0,1-1.29-.92A1.92,1.92,0,0,0,497.59,299.67Zm78.53-132.52a3.21,3.21,0,0,0-1.63,1.23c-4.35,4.63-8.66,9.29-13,13.91-2.9,3.08-5.76,6.2-8.67,9.28-5,5.3-9.93,10.64-14.91,15.94-2.94,3.12-5.9,6.23-8.79,9.4-3.84,4.21-7.79,8.31-11.71,12.45-1.75,1.85-1.83,2.17-.81,4.76a21.24,21.24,0,0,1,1.6-3c1.57-2,3.46-3.76,5.19-5.63q4.92-5.33,9.88-10.62c3-3.21,6-6.44,9-9.63q5.06-5.33,10-10.72c2.94-3.2,5.85-6.43,8.92-9.51,4.33-4.35,8.38-9,12.65-13.37.69-.71,1.26-1.5,1.87-2.26A2,2,0,0,0,576.12,167.15Z" transform="translate(-73.22 -160.54)"/><path class="cls-2" d="M82.35,271.31a2.24,2.24,0,0,1,2.15.39,4.21,4.21,0,0,0,3,.87H158.4c1.72,0,1.72,0,2.22-1.62a2,2,0,0,1,1.1-.17,6.6,6.6,0,0,0,3.27-.26c0-1.26,0-2.5,0-3.74,0-.63.14-1.32-.37-1.86a1.6,1.6,0,0,0,.14-1.87c.35-.38.15-.89.29-1.31l1-.1a12.53,12.53,0,0,1,.27,3.51v4.59c.25.22.06.65.39.83l5,.27a4.25,4.25,0,0,1,.2,1.83l-.06,3.32q0,13.15,0,26.31c-1.78.5-3.66-.15-5.47.38-.3,1.29.08,2.54,0,3.78a13.94,13.94,0,0,1-.21,4.37l-1.07-.17c0-1.87-.22-3.73-.08-5.61a7,7,0,0,0-.08-2.41,5.73,5.73,0,0,0-2.1-.05c-.74.39-1.47,0-2.18,0a2.66,2.66,0,0,1-.3-1.93c0-7.78.09-15.56.14-23.34a13.12,13.12,0,0,0-.27-3.33,3,3,0,0,0-1.54-.15H87.28c-.6,0-1.2,0-1.79,0a2.27,2.27,0,0,1-2.12-1.28C83.14,272,82.61,271.77,82.35,271.31Z" transform="translate(-73.22 -160.54)"/><path class="cls-2" d="M180.63,247.7c0,.62.06,1.24.1,1.87,0,1,0,2.08,0,3.12.21,1.72-.12,3.45.16,5.28a41.29,41.29,0,0,1,5.24.21,3.81,3.81,0,0,1,.14,2,15.63,15.63,0,0,0,0,2.56c0,9,0,18,0,27.14H181a2.1,2.1,0,0,0-.2,1.43,11.57,11.57,0,0,0-.07,2.28,12,12,0,0,1,0,2.75c0,.34-.13.64-.54.66s-.65-.29-.67-.72c-.06-1.08-.11-2.16-.16-3.24a5.16,5.16,0,0,0,.09-3.26c-1.06.13-2.08-.22-3.05.32a1.64,1.64,0,0,1-1.27,0c0-.6-.08-1.2-.09-1.79V276.06a4.85,4.85,0,0,0-.25-1.93q0-7.53.08-15.07a.69.69,0,0,1,.32-.69,29.25,29.25,0,0,0,4.08-.16,4.82,4.82,0,0,0,.15-1.77c0-1.57-.06-3.13-.09-4.7,0-.8.7-1.58.1-2.41.07-.57.15-1.14.22-1.71Z" transform="translate(-73.22 -160.54)"/><path class="cls-2" d="M197.35,288a11.5,11.5,0,0,1,0,2.75c0,.41-.13.76-.64.72s-.57-.42-.59-.82c-.05-1-.11-2.05-.16-3.09a22.81,22.81,0,0,1,.23-2.85c-.18-.09-.32-.22-.46-.22-1.07,0-2.14,0-3.21,0a3,3,0,0,1-1.84-.18V252.92c1.74-.38,3.44,0,5.07-.26.44-.51.27-1.08.28-1.6,0-2.61,0-5.22,0-7.83,0-.72,0-1.37,1.26-.94v10.3a10.71,10.71,0,0,1,4.56.28c0,.69.43,1.33,0,2,.06.79-.37,1.63.24,2.37a5.73,5.73,0,0,0-.23,2.25c0,7.72,0,15.43,0,23.15,0,.57.2,1.19-.29,1.77-1.35.19-2.77-.11-4.1.15a1.83,1.83,0,0,0-.16,1.17A12.28,12.28,0,0,0,197.35,288Z" transform="translate(-73.22 -160.54)"/><path class="cls-4" d="M316.15,319.5a6.35,6.35,0,0,1,3.56-2.07,4.67,4.67,0,0,0,2.09-1.23q8.44-6.61,16.85-13.28c5.52-4.37,11-8.78,16.52-13.16.6-.47,1.22-.91,1.84-1.35a6.92,6.92,0,0,0,2.72-3.93q1.36-5.19,2.75-10.37,3-11.07,6-22.13c.41-1.52.78-3,1.18-4.56.12-.48.24-.95.39-1.42a4.75,4.75,0,0,1,4.72-3.53h54.65c3.36,0,2.68.17,3.47-2.64,2-7.11,3.83-14.26,5.72-21.39.71-2.67,1.51-5.32,2.06-8a1,1,0,0,1,.53-.78c1.07.44.94,1.34.74,2.17-.5,2.06-1.05,4.1-1.6,6.15s-1.26,4.36-1.76,6.55-1.15,4.48-1.7,6.73c-.78,3.21-1.74,6.38-2.65,9.56-.69,2.41-2.09,3.45-4.68,3.45H375.68a10.69,10.69,0,0,0-1.79.11,2.45,2.45,0,0,0-2.37,2.42c-.08,1.07-.75,2-1,3-.6,2.73-1.34,5.41-2,8.12-.61,2.48-1.33,4.94-2,7.38s-.88,4.85-1.94,7.13c-.51,1.11-.47,2.52-.91,3.75-1.06,3-1.72,6.17-2.54,9.26a8.38,8.38,0,0,1-3.08,4.47q-7.85,6.22-15.71,12.42l-21.57,17a9.69,9.69,0,0,1-1.37.88C317.6,321.19,317.35,321.12,316.15,319.5Z" transform="translate(-73.22 -160.54)"/><path class="cls-4" d="M180.71,252.69c0-1,0-2.08,0-3.12a24.58,24.58,0,0,0,3.74.06c2.71,0,4-1.33,4-4,0-.77,0-1.53,0-2.29q0-14.43,0-28.86a6.89,6.89,0,0,1,.22-2.25,3.47,3.47,0,0,1,3.56-2.75H193q22.17-.35,44.32-.3c1.75,0,3.45.43,5.19.34a1,1,0,0,1,1.17,1.07,3.15,3.15,0,0,1-2.83,3.69,15.82,15.82,0,0,1-2,.05h-25.6c-3,0-6.08-.29-9,.74.09-1.3,1.14-1.45,2.06-1.62a15.86,15.86,0,0,1,2.76-.13h30.34c1.2,0,2.39,0,3.27-1.27a5.88,5.88,0,0,0-2.66-.54l-9.3,0-35.73,0a11.53,11.53,0,0,0-1.95.08,2.35,2.35,0,0,0-2.24,2.53c0,.71,0,1.41,0,2.12q0,13.22,0,26.43a32.76,32.76,0,0,1-.29,4.54,4.6,4.6,0,0,1-3.52,4.22,8.81,8.81,0,0,0-3.55,1.54,1.44,1.44,0,0,1-1.82.05C181.32,252.82,181.08,252.59,180.71,252.69Z" transform="translate(-73.22 -160.54)"/><path class="cls-3" d="M150.92,312.89c0,1.11-.69,1-1.47.89a3.43,3.43,0,0,1-.32-1.87,6.09,6.09,0,0,0,0-2.72,9.84,9.84,0,0,0-2.91-.06l-2-.11v-17.8h5v-6.46a1.36,1.36,0,0,1,1.51-.2c.27,2.06.1,4.17.26,6.48h5.66a6.68,6.68,0,0,1,.34,2.4,4.6,4.6,0,0,0,0,1.92c0,4.53-.09,9.07-.13,13.76h-5.87a2.73,2.73,0,0,0,0,1.72A2.79,2.79,0,0,0,150.92,312.89Z" transform="translate(-73.22 -160.54)"/><path class="cls-3" d="M242,317.61l-1.93-.12c-.22-5.95-.12-11.84-.11-17.87h5.37c.31-1.79-.05-3.47.26-5.09a1.52,1.52,0,0,1,1.47.08v4.92h5.52a10.53,10.53,0,0,1,.37,2.71,5.5,5.5,0,0,0-.09,2.1,4.55,4.55,0,0,0-.16,1.76c0,3.19,0,6.38,0,9.56a2.87,2.87,0,0,1-.32,1.9h-5.08a1.67,1.67,0,0,0-.2,1.26,5.88,5.88,0,0,0,0,2.25v2.48a1.64,1.64,0,0,1-1.62,0c-.05-1-.11-2-.16-3s.5-2-.19-3c-.56,0-1.14,0-1.72,0S242.43,317.58,242,317.61Z" transform="translate(-73.22 -160.54)"/><path class="cls-2" d="M258.1,307.8a2.79,2.79,0,0,1-2,0c-.26-1-.18-15.74.11-17.64,1.72-.3,3.52,0,5.42-.23.44-1.83,0-3.74.29-5.49.43-.39.8-.22,1.32-.19.09,1.83.17,3.65.25,5.56a35.26,35.26,0,0,1,5.15.31,4.07,4.07,0,0,1,.22,2.36c0,.53,0,1.06,0,1.6l-.1,13.74h-5.27a3.84,3.84,0,0,0-.05,1.71,4.44,4.44,0,0,0-.1,1.74c.39.7.09,1.41,0,2.11a.33.33,0,0,0-.41.24l-.66,0a.41.41,0,0,0-.41-.23,10.58,10.58,0,0,1-.34-2.8,2.07,2.07,0,0,0,.4-1.54c0-1-.22-1.26-1.22-1.29S259,307.77,258.1,307.8Z" transform="translate(-73.22 -160.54)"/><path class="cls-4" d="M408.2,299.59l39.95,0a4.15,4.15,0,0,0,2.66-.47,2,2,0,0,1,.43-1.65c1.3-1.79,3.14-3,4.56-4.64,1.88-2.18,4.05-4.09,5.71-6.45a21.93,21.93,0,0,1,1.65-1.54c2.1-2.4,4.3-4.71,6.45-7.05,1.6-1.75,3.16-3.55,4.86-5.22a24.57,24.57,0,0,0,2.53-2.76c.43-.56.86-1.28,1.85-1.27.19.79-.33,1.21-.75,1.65-1.81,1.95-3.64,3.88-5.45,5.83-4.32,4.65-8.69,9.26-12.93,14-2.1,2.34-4.35,4.55-6.37,7-.45.53-.86,1.1-1.37,1.74a1.5,1.5,0,0,0,1.8-.48,67,67,0,0,0,5.45-5.6,10.26,10.26,0,0,1,.75-.86c3.41-3.35,6.49-7,9.76-10.49,2.78-3,5.45-6,8.32-8.92.75-.77,1.2-1.82,2.29-2.4a2.66,2.66,0,0,1,1.27,2.52c-.61,0-.95.49-1.33.88-3.71,3.88-7.39,7.8-10.94,11.84-1.29,1.47-2.67,2.85-4,4.31-2.79,3.11-5.66,6.15-8.53,9.19a8.4,8.4,0,0,1-6.35,2.81q-19.08,0-38.17,0a9.58,9.58,0,0,1-3.18-.59c-.48-.16-.93-.33-1-.92C408.15,299.88,408.18,299.74,408.2,299.59Z" transform="translate(-73.22 -160.54)"/><path class="cls-4" d="M441.5,206.19c-.48,0-1,0-1.46,0H385.88c-1.31,0-2.61,0-3.92-.09a2.06,2.06,0,0,1-1.73-.66c.47-1.54.87-3.17,1.46-4.72.71-1.88,2.45-2.32,4.2-2.59a12.68,12.68,0,0,1,1.95,0h53a3.74,3.74,0,0,0,2.59-.67,3.66,3.66,0,0,0,1.34-2.11c.73-2.77,1.47-5.55,2.36-8.34.52.95,1.35,1.73,1.13,2.94-.94,1.62-1.14,3.47-1.7,5.21-.28.88-.45,1.8-.76,2.66a3.71,3.71,0,0,1-3.55,2.64c-.87,0-1.74,0-2.61,0-17.24,0-34.47,0-51.71,0-3.51,0-4.23.91-5,4a1.93,1.93,0,0,0-.13,1.19,19,19,0,0,0,3.85.21q26.5,0,53,0C440.28,205.92,441,205.66,441.5,206.19Z" transform="translate(-73.22 -160.54)"/><path class="cls-4" d="M247.51,270.92a65,65,0,0,0,8.83,1q33.09-.07,66.17,0a5,5,0,0,1,1.86.13c-.11.71.11,1.48-.5,2.09a2.25,2.25,0,0,1-1.12.09q-34.42,0-68.83,0a7.88,7.88,0,0,1-6.11-2.51C247.59,271.52,247.3,271.3,247.51,270.92Z" transform="translate(-73.22 -160.54)"/><path class="cls-4" d="M236.18,248a6.26,6.26,0,0,1,.2-2.51c1.93.8,2.48,2.33,2.43,4.3-.07,3.36,0,6.71,0,10.07,0,.47.15,1-.22,1.4s-.44.57-.07.92.61.45.57.89c0,.65-.08,1.3-.08,1.95q0,22.46,0,44.89a8.73,8.73,0,0,1-.2,2.59,2.76,2.76,0,0,1-1.9,2.05,6.41,6.41,0,0,0-3.58,2.09c-.45.6-1,.55-1.52,0a1.63,1.63,0,0,0-.81-.52,14.23,14.23,0,0,1,0-2.61c.54,0,1.08.09,1.62.09a7.9,7.9,0,0,0,3-.67c1.28-.53,1.52-1.64,1.52-2.94q0-30,0-60c0-.38,0-.76,0-1.14A.86.86,0,0,0,236.18,248Z" transform="translate(-73.22 -160.54)"/><path class="cls-4" d="M174.8,274.13a4.85,4.85,0,0,1,.25,1.93V288.3c0,.59.06,1.19.09,1.79-.44,4-.19,8.1-.32,12.15a3.13,3.13,0,0,1-2.58,3.29c-1.18.36-2.43.5-3.4,1.41a1.32,1.32,0,0,1-1.54,0,2.71,2.71,0,0,0-1-.51c.13-1.23-.25-2.48,0-3.77,1.81-.53,3.69.12,5.47-.38,1-.25.72-1.09.72-1.74,0-7.61,0-15.23,0-22.85,0-.38,0-.76,0-1.14s-.35-.51-.68-.58l.06-3.32C173.09,272.69,173.79,273.72,174.8,274.13Z" transform="translate(-73.22 -160.54)"/><path class="cls-4" d="M213.72,308a17,17,0,0,1-.05-3.28c2-.33,3.86,0,5.73-.2,1.13-.34.8-1.3.8-2.05q0-17.61,0-35.22c0-1.47,0-2.94,0-4.41a1.53,1.53,0,0,0-.68-1.54,6.47,6.47,0,0,1,.08-2.15,2.26,2.26,0,0,1,2.43,2.07,12.8,12.8,0,0,1,.08,2q0,19.74,0,39.48v.66c0,2.6-.76,3.5-3.31,4a5.13,5.13,0,0,0-1.85.58A3.1,3.1,0,0,1,213.72,308Z" transform="translate(-73.22 -160.54)"/><path class="cls-4" d="M180.7,293.58a11.57,11.57,0,0,1,.07-2.28,12.24,12.24,0,0,0,4.67-.36c1.31-.25,1.68-.8,1.76-2.16,0-.33,0-.66,0-1q0-11.34,0-22.68c0-.49,0-1,0-1.47s-.28-.93-.91-.92a15.63,15.63,0,0,1,0-2.56,3.08,3.08,0,0,1,2.91,3,12.47,12.47,0,0,1,.09,1.62q0,11.75,0,23.5a8.87,8.87,0,0,1-.06,1.46c-.27,1.64-1,2.84-2.84,3.11a4.7,4.7,0,0,0-1.86.57A3.35,3.35,0,0,1,180.7,293.58Z" transform="translate(-73.22 -160.54)"/><path class="cls-4" d="M500.57,190.84c-.09.53-.45,1.06-.92.89-.7-.25-1.65-.08-2-1-.66-1.66-1.41-3.28-2.08-4.93q-2.65-6.54-5.27-13.1c-1.16-2.86-2.3-5.72-3.48-8.57a3.22,3.22,0,0,1-.16-2.34c.7.07.79.69.95,1.16a3.46,3.46,0,0,0,1,1.64c1.56,1.18,2.23,2.9,2.93,4.61q4.06,10,8.12,20A4,4,0,0,0,500.57,190.84Z" transform="translate(-73.22 -160.54)"/><path class="cls-4" d="M197.35,288a12.28,12.28,0,0,1,.05-2.27,9.48,9.48,0,0,0,3.23-.08c1.77-.46,2.25-1,2.25-2.8,0-4.61,0-9.23,0-13.85v-10.1c0-.64.1-1.34-.69-1.66-.61-.74-.18-1.58-.24-2.37,1.81.35,2.49,1,2.74,2.69a10.13,10.13,0,0,1,.06,1.46q0,12,0,23.95a6.8,6.8,0,0,1-.16,2.11,2,2,0,0,1-.77,1.21c-1.82,1-3.51,2.4-5.82,1.75A2.77,2.77,0,0,0,197.35,288Z" transform="translate(-73.22 -160.54)"/><path class="cls-4" d="M231,235.68c-.3-1.28-.3-1.28-2-.87-2.93,0-5.85.06-8.77.07-3.15,0-6.29,0-9.43,0a4.35,4.35,0,0,1-4.06-1.92c-.28-.47-1-.52-1.1-1.12a9.48,9.48,0,0,1,3.17.55A14.29,14.29,0,0,0,213,233c6,0,12,0,17.94,0a8.6,8.6,0,0,1,6.5,3.21c.35.38.78.8.58,1.43-.15,0-.34,0-.44-.09A9.44,9.44,0,0,0,231,235.68Z" transform="translate(-73.22 -160.54)"/><path class="cls-4" d="M252.81,304.34a5.5,5.5,0,0,1,.09-2.1c1.22-.17,1.73.68,2.17,1.56a4.37,4.37,0,0,1,.36,1.91c0,3.53,0,7.06,0,10.59,0,2.36-.79,3.29-3.08,3.94a5.66,5.66,0,0,0-1.85.6,3.16,3.16,0,0,1-3.38.23,5.88,5.88,0,0,1,0-2.25,13.45,13.45,0,0,0,5-.54c1.2-.31,1.47-.66,1.48-1.81,0-3.58,0-7.17,0-10.75A1.5,1.5,0,0,0,252.81,304.34Z" transform="translate(-73.22 -160.54)"/><path class="cls-4" d="M156.91,295.36a4.6,4.6,0,0,1,0-1.92c1.95.43,2.66,1.21,2.71,3.23.06,2.33,0,4.66,0,7,0,1.52,0,3,0,4.55-.06,2.27-.91,3.25-3.12,3.64a5,5,0,0,0-2.69,1,1.64,1.64,0,0,1-2.45.12c-.11-.09-.3-.07-.46-.1a2.79,2.79,0,0,1,0-2.05c1.94.45,3.73-.41,5.58-.68a2,2,0,0,0,1.59-2c0-3.68,0-7.37,0-11.05C158.05,296.32,157.84,295.56,156.91,295.36Z" transform="translate(-73.22 -160.54)"/><path class="cls-4" d="M263.32,311.27a4.44,4.44,0,0,1,.1-1.74,9.92,9.92,0,0,0,4-.22c2.14-.56,2.58-1,2.59-3.25,0-2.87,0-5.75,0-8.63a7.54,7.54,0,0,0-.09-1.78c-.15-.63-.13-1.49-1.11-1.57,0-.54,0-1.07,0-1.6a2.34,2.34,0,0,1,2.32,1.85,5.54,5.54,0,0,1,.24,1.76c0,3.51,0,7,0,10.55,0,2.43-.59,3.15-2.86,3.87a11.1,11.1,0,0,0-2,.71A3.16,3.16,0,0,1,263.32,311.27Z" transform="translate(-73.22 -160.54)"/><path class="cls-4" d="M242,317.61c.48,0,1-.06,1.44-.07s1.16,0,1.72,0c.69,1.06.18,2.07.19,3C243.07,320.28,242.2,319.51,242,317.61Z" transform="translate(-73.22 -160.54)"/><path class="cls-4" d="M192.55,284.57c1.07,0,2.14,0,3.21,0,.14,0,.28.13.46.22a22.81,22.81,0,0,0-.23,2.85C193.75,287.27,193,286.58,192.55,284.57Z" transform="translate(-73.22 -160.54)"/><path class="cls-4" d="M258.1,307.8c.87,0,1.74-.09,2.61-.08s1.2.27,1.22,1.29a2.07,2.07,0,0,1-.4,1.54C259.53,310.45,258.75,309.83,258.1,307.8Z" transform="translate(-73.22 -160.54)"/><path class="cls-4" d="M176.41,290.09c1-.54,2-.19,3.05-.32a5.16,5.16,0,0,1-.09,3.26A4.82,4.82,0,0,1,176.41,290.09Z" transform="translate(-73.22 -160.54)"/><path class="cls-4" d="M225.76,312.05a12.75,12.75,0,0,1,3.38,0,9.15,9.15,0,0,1,.08,2.8,4.88,4.88,0,0,1-2.13-.55A1.94,1.94,0,0,1,225.76,312.05Z" transform="translate(-73.22 -160.54)"/><path class="cls-4" d="M209.11,304.65a8.06,8.06,0,0,1,2.94,0,4.4,4.4,0,0,1,0,2.71,3.77,3.77,0,0,1-2.66-1.63A1.5,1.5,0,0,1,209.11,304.65Z" transform="translate(-73.22 -160.54)"/><path class="cls-4" d="M146.22,309.13a9.84,9.84,0,0,1,2.91.06,6.09,6.09,0,0,1,0,2.72A3.26,3.26,0,0,1,146.22,309.13Z" transform="translate(-73.22 -160.54)"/><path class="cls-4" d="M162.76,302.58a5.73,5.73,0,0,1,2.1.05,7,7,0,0,1,.08,2.41C163.37,304.73,163,304.26,162.76,302.58Z" transform="translate(-73.22 -160.54)"/><path class="cls-4" d="M244.53,268.34a5.56,5.56,0,0,1,3,2.58c-.15,0-.34.12-.43.06A5.67,5.67,0,0,1,244.53,268.34Z" transform="translate(-73.22 -160.54)"/><path class="cls-5" d="M497.59,299.67a1.92,1.92,0,0,1-.94.37c-.67,0-1.38.11-1.71-.71Z" transform="translate(-73.22 -160.54)"/><path class="cls-5" d="M408.2,299.59c0,.15-.05.29-.07.44a2.93,2.93,0,0,1-1.93-.43A5.38,5.38,0,0,1,408.2,299.59Z" transform="translate(-73.22 -160.54)"/><path class="cls-5" d="M493.79,298.53a1.18,1.18,0,0,1,.93.71C494.2,299.29,493.73,299.25,493.79,298.53Z" transform="translate(-73.22 -160.54)"/><path class="cls-6" d="M165,310.65l1.07.17C165.67,311.13,165.28,311.29,165,310.65Z" transform="translate(-73.22 -160.54)"/><path class="cls-5" d="M492.79,296.93c.22.05.31.18.24.4C492.81,297.28,492.72,297.15,492.79,296.93Z" transform="translate(-73.22 -160.54)"/><path class="cls-5" d="M493.37,298a.29.29,0,0,1,.28.38A.28.28,0,0,1,493.37,298Z" transform="translate(-73.22 -160.54)"/><path class="cls-4" d="M576.05,162.06c-.24,0-.33-.1-.31-.32C576,161.73,576.07,161.83,576.05,162.06Z" transform="translate(-73.22 -160.54)"/><path class="cls-6" d="M261.87,313.35a.41.41,0,0,1,.41.23A.31.31,0,0,1,261.87,313.35Z" transform="translate(-73.22 -160.54)"/><path class="cls-6" d="M262.94,313.62a.33.33,0,0,1,.41-.24A.31.31,0,0,1,262.94,313.62Z" transform="translate(-73.22 -160.54)"/><path class="cls-7" d="M538.14,295.87a3.07,3.07,0,0,1-1.79.27c-12.73,0-25.46,0-38.19,0a2.27,2.27,0,0,1-2.46-1.55c-2.56-5.7-5.36-11.29-7.76-17.06-1.95-4.66-4.16-9.2-6.18-13.83-.19-.43-.44-.85-.7-1.34a3.53,3.53,0,0,0-1.39,1.18c-4,4.29-8.12,8.5-12,12.9-5.22,5.91-10.76,11.52-16.08,17.34-2.62,2.86-1.45,2.36-5.39,2.37q-18.6,0-37.21,0a3.3,3.3,0,0,1-2-.25c0-.61.51-.87.83-1.21,5.08-5.31,10.29-10.49,15.22-15.92,7.17-7.89,14.83-15.32,22-23.16,6.77-7.37,13.82-14.48,20.65-21.79.78-.83,1.46-1.75,2.25-2.56a1.76,1.76,0,0,0,.43-2.18c-1.86-4.57-3.55-9.22-5.46-13.77-5.06-12.08-10.06-24.18-15.11-36.25-1.82-4.36-3.24-8.88-5.28-13.16a1.93,1.93,0,0,1-.3-1.27c.31-.4.78-.26,1.18-.26l39.5,0c1.69,0,1.72,0,2.32,1.62,3.81,10.29,8,20.43,12.18,30.57a3.68,3.68,0,0,0,.88,1.68c.63.06.88-.43,1.2-.76,2.63-2.76,5.32-5.46,7.85-8.3,6.4-7.2,13.28-13.92,19.9-20.91,1-1,1.88-2.1,2.81-3.16a2.1,2.1,0,0,1,1.72-.73q20.16,0,40.32,0c.26,0,.53,0,.76.07.28.42,0,.65-.19.89-2.76,3-5.48,6-8.27,9-4.65,5-9.43,9.8-14,14.83-6.58,7.24-13.6,14.08-20.09,21.4-5.73,6.48-11.82,12.61-17.68,19a1.88,1.88,0,0,0-.45,2.31c5.33,12.9,10.75,25.77,15.87,38.76,2,5.2,4.12,10.4,6.18,15.59,1.06,2.68,2.19,5.32,3.29,8C537.71,294.7,537.9,295.25,538.14,295.87Z" transform="translate(-73.22 -160.54)"/><path class="cls-4" d="M349.92,177c-.71,0-1.42-.05-2.12-.05H96.15c-.77,0-1.53,0-2.29,0a2.35,2.35,0,0,0-2.29,2.46c0,.65,0,1.3,0,1.95q0,39,0,78a3.42,3.42,0,0,0,.22,1.86,17.42,17.42,0,0,0,3.33.16h64.79c.61,0,1.3-.27,1.84.28l-1.14,0H95c-1.57,0-3.15,0-4.73-.11-1.43-.06-1.47-.13-1.51-1.49V180.28a14,14,0,0,1,.28-2.74c.36-1.86,1.18-2.9,3.9-3.2a18.31,18.31,0,0,1,2,0h254a3.27,3.27,0,0,1,1.65.16C350.33,175.31,350.51,176.22,349.92,177Z" transform="translate(-73.22 -160.54)"/><path class="cls-4" d="M334.68,233.37a15.15,15.15,0,0,0-1.86,3,31.08,31.08,0,0,1-6.89,8.06,30,30,0,0,1-12.54,6.13,31.87,31.87,0,0,1-11.15.33,28.12,28.12,0,0,1-12.12-4.79c-.59-.39-1.57-.59-1.5-1.64a4.6,4.6,0,0,1,2.72.88,24.56,24.56,0,0,0,9.91,3.79,28.41,28.41,0,0,0,13.37-.53,28,28,0,0,0,14.13-9.11,26.88,26.88,0,0,0,5.77-11.16,28.11,28.11,0,0,0,.62-9.34,27.65,27.65,0,0,0-1.91-8.19A37,37,0,0,0,329,203a8.65,8.65,0,0,0-2.34-2.33,10.86,10.86,0,0,1-2-1.9,28.52,28.52,0,0,0-8-5.58,7.59,7.59,0,0,0-3.45-.79c-5.71,0-11.42.11-17.12,0a11.42,11.42,0,0,0-6.12,1.89,25.07,25.07,0,0,1-3.39,1.92c-.72.28-1.12,1-1.7,1.5-.28.23-.62.58-.81-.1a3.93,3.93,0,0,1,1.52-1.63,32.69,32.69,0,0,1,7.78-4.36,5.89,5.89,0,0,1,2.07-.35q9.53,0,19.07,0a7.41,7.41,0,0,1,3.12,1.2,35.34,35.34,0,0,1,8.88,6.21,32.3,32.3,0,0,1,4.82,5.25,29.32,29.32,0,0,1,5.51,14.76,49.47,49.47,0,0,1,.15,5.84c.3,1-.36,1.87-.58,2.8-.42,1.82-1,3.58-1.37,5.42C335.06,232.93,334.82,233.14,334.68,233.37Z" transform="translate(-73.22 -160.54)"/><path class="cls-8" d="M238.84,261.3c1.73,0,3.47.07,5.2.07h80.63l2.61,0c-.54.55-1.23.28-1.85.28q-36,0-71.9,0c-4.35,0-8.7,0-13.05,0C239.93,261.66,239.27,261.93,238.84,261.3Z" transform="translate(-73.22 -160.54)"/><path class="cls-4" d="M164.61,264.91c.51.54.36,1.23.37,1.86,0,1.24,0,2.48,0,3.74a6.6,6.6,0,0,1-3.27.26,2.3,2.3,0,0,1,.66-.91c.88-1,.88-1,.11-2.2A6.86,6.86,0,0,1,164.61,264.91Z" transform="translate(-73.22 -160.54)"/><path class="cls-7" d="M116.47,193.58a54.54,54.54,0,0,1,5.72-.55,3.07,3.07,0,0,0,1.44.14h24.7c0,.65.09,1.3.09,2q0,23.91,0,47.81a4.68,4.68,0,0,1-.11,1.59c-1.22.38-10.25.43-12,0-.12-13.13.08-26.32-.12-39.38a1.57,1.57,0,0,0-1.36-.39c-4.35,0-8.71,0-13.06.08a13.75,13.75,0,0,0-13.27,11,14.17,14.17,0,0,0,12.88,17.25c2.88.1,5.76.08,8.65.11a6.1,6.1,0,0,1,1.76.11c.4,1.1.54,8.82.21,11.17-.27.35-.66.32-1,.32-3.76,0-7.51.15-11.26-.13A22.18,22.18,0,0,1,109,241.35c-4.57-3-8.41-6.72-10.56-11.89-4-9.56-2.8-18.46,3.51-26.69a31.15,31.15,0,0,1,6.89-6.18A22,22,0,0,1,115,194,1.78,1.78,0,0,0,116.47,193.58Z" transform="translate(-73.22 -160.54)"/><path class="cls-7" d="M302.31,193.11h4.57a20,20,0,0,1,6.37,1.3c6.92,2.78,12.32,7.26,15.28,14.27a25.47,25.47,0,0,1-7.86,30.62A24.65,24.65,0,0,1,304,244.87a22.88,22.88,0,0,1-7.54-1.13c-9.38-3.57-15.73-9.9-17.66-20C277,214.09,280,206,287.25,199.54a24.27,24.27,0,0,1,14.66-6.42A.29.29,0,0,0,302.31,193.11Zm2,40c5.16-.29,9.39-2.07,12-6.91,3.5-6.4,2.17-11.78-1.3-16.47a12.51,12.51,0,0,0-9.58-4.92c-6.8-.44-12.13,3.54-14.19,10.12s.83,11.57,4.6,15.13A11.67,11.67,0,0,0,304.31,233.12Z" transform="translate(-73.22 -160.54)"/><path class="cls-7" d="M249.23,194.68a22.12,22.12,0,0,1,2.78,1.69c4.39,3.6,7.13,8.06,7.33,13.93a16.35,16.35,0,0,1-3.65,11,18.64,18.64,0,0,1-5.55,5.29,17.25,17.25,0,0,1,4.06,8.54,34.69,34.69,0,0,1,1,9.23,1.18,1.18,0,0,1-1.13.44c-3.1,0-6.2,0-9.3,0-1.37,0-1.4-.05-1.45-1.52a15.43,15.43,0,0,0-1-5.75c-2.56-5.8-7.05-8.88-13.35-9-6.53-.15-13.05,0-19.58-.06a4,4,0,0,1-1.87-.19V217.11c.56-.44,1.23-.24,1.86-.24q15.09,0,30.18,0a12.09,12.09,0,0,0,3.39-.33,6.15,6.15,0,0,0,4.43-6,5.53,5.53,0,0,0-4.57-5.38,15.19,15.19,0,0,0-3.69-.49c-10.16,0-20.33,0-30.5,0a2,2,0,0,1-1.2-.28c0-3.64-.09-7.42.07-11.21l31,0a4.85,4.85,0,0,0,1.93-.14,33.91,33.91,0,0,1,5.11.52.24.24,0,0,0,.4.07l2.85.91A.29.29,0,0,0,249.23,194.68Z" transform="translate(-73.22 -160.54)"/><path class="cls-7" d="M184.23,204.88c-.48.56-.26,1.25-.26,1.87q0,18,0,35.91a3.72,3.72,0,0,1-.3,2.13c-3.83.19-7.77.09-11.89,0a27.64,27.64,0,0,1-.15-4.88c0-1.68,0-3.37,0-5.06v-29.6c-.63-.67-1.32-.44-1.94-.44-5.34,0-10.67,0-16,0a4.24,4.24,0,0,1-2-.22c-.15-3.69,0-7.45-.06-11.32h51.9a1.28,1.28,0,0,1,.31,1.13c0,3.05,0,6.09,0,9.14,0,.43.08.88-.31,1.22a5.39,5.39,0,0,0-.79-.12H185.26C184.9,204.58,184.49,204.49,184.23,204.88Z" transform="translate(-73.22 -160.54)"/><path class="cls-7" d="M272.35,244.94c-3.05-.17-6.1-.13-9.14,0a.87.87,0,0,0-.45-.49q0-20.53,0-41.07c0-3.37.05-6.74.07-10.11,3.83,0,7.66-.06,11.49.05a9.69,9.69,0,0,1,.23,2.8q0,23.28,0,46.58c0,.7,0,1.41,0,2.11l-1.1.15A.9.9,0,0,0,272.35,244.94Z" transform="translate(-73.22 -160.54)"/><path class="cls-4" d="M93.68,210.51a13.21,13.21,0,0,1,1.71-4.67,31,31,0,0,1,12-12.57c1.27-.76,2.65-1.2,3.94-1.87a3.55,3.55,0,0,1,1.76-.19l69.36,0h66.92a3.81,3.81,0,0,1,1.4.29,20.06,20.06,0,0,1,4.72,2.85c.32.24.79.44.71,1a2.84,2.84,0,0,1-2.23-.71c-.74-.47-1.51-.85-2.26-1.3a6.35,6.35,0,0,0-3.4-.9c-2.67,0-5.33,0-8,0h-118c-2.44,0-4.89.12-7.32,0a13.63,13.63,0,0,0-8.78,2.85,37.85,37.85,0,0,0-8.47,8.2,21.24,21.24,0,0,0-3.44,6.18A1.32,1.32,0,0,1,93.68,210.51Z" transform="translate(-73.22 -160.54)"/><path class="cls-4" d="M167.89,211.15a3.21,3.21,0,0,1-1.6.13c-2.66,0-5.32,0-8,0s-3.54.91-3.56,3.52c0,5.05,0,10.11,0,15.16q0,8,0,16a5.39,5.39,0,0,1-2.14,4.69,6.78,6.78,0,0,1-4,1,71.9,71.9,0,0,1-9.28-.16,24.7,24.7,0,0,0-6,.1,29.54,29.54,0,0,1-6,.06,79.35,79.35,0,0,1-8.56-.9,28.75,28.75,0,0,1-12.82-6.05c-.68-.54-1.34-1.11-2-1.68-.23-.21-.51-.44-.31-.83.53-.24.79.21,1.12.45A35.86,35.86,0,0,0,118.57,249a45.56,45.56,0,0,0,7.08.81c2.66.12,5.33.1,8,0,4.66-.15,9.31.17,14,0,.54,0,1.09,0,1.63,0,2.42-.06,3.7-1.25,3.9-3.66.05-.59,0-1.19,0-1.79v-29c0-.71,0-1.42,0-2.12a3.58,3.58,0,0,1,3.56-3.53c3.37-.07,6.74,0,10.11,0C168,209.74,168,209.8,167.89,211.15Z" transform="translate(-73.22 -160.54)"/><path class="cls-4" d="M132.37,211.61a49.52,49.52,0,0,0-9.27.16c-4.5.61-7,4.09-7.92,7.68a9.18,9.18,0,0,0,2,8.09,5.74,5.74,0,0,0,4.62,2c2.89.08,5.77,0,8.65.06a3.66,3.66,0,0,1,1.61.13c0,.63-.45.67-.89.67-3.36,0-6.73.08-10.09,0a9.35,9.35,0,0,1-5-1.88,4.47,4.47,0,0,1-2.07-2.82,3.51,3.51,0,0,0-.4-1.06,7.89,7.89,0,0,1-.2-6.76,13,13,0,0,1,5.09-6.75,10.77,10.77,0,0,1,4.56-1.58,51.1,51.1,0,0,1,7.62-.34C132.57,209.22,132.87,209.64,132.37,211.61Z" transform="translate(-73.22 -160.54)"/><path class="cls-4" d="M282.06,239c-1.17.94-.92,2.35-1.07,3.59a35.35,35.35,0,0,0-.05,3.57c-.06,3.29-1.73,4.88-4.94,5.07s-6.51.05-9.76,0a5.53,5.53,0,0,1-2.64-.75,4.12,4.12,0,0,0-4.18,0,7,7,0,0,1-3.45.82c-2.6,0-5.21-.09-7.81,0a7.48,7.48,0,0,1-6.31-3c1.16-.38,2.08.35,3,.78a7.26,7.26,0,0,0,3.11.78q3.58,0,7.17,0a7.6,7.6,0,0,0,4.33-1.17,2.77,2.77,0,0,1,2.17-.3c1.4.24,2.69.83,4.05,1.18a22.87,22.87,0,0,0,5.84.28c1.62,0,3.23,0,4.87-.18,2.07-.21,3-1.67,3.13-3.68.09-1.74,0-3.48,0-5.22a8,8,0,0,1,.32-2.24c.32-1.13.78-1.29,1.74-.61C281.94,238.19,282.37,238.43,282.06,239Z" transform="translate(-73.22 -160.54)"/><path class="cls-9" d="M274.53,244.79c0-.7,0-1.41,0-2.11q0-23.3,0-46.58a9.69,9.69,0,0,0-.23-2.8c-3.83-.11-7.66,0-11.49-.05.2-.54.66-.48,1.09-.48,3.2,0,6.41,0,9.61,0,1.23,0,1.41.21,1.46,1.42,0,.37,0,.76,0,1.14q0,23.78,0,47.55C275,243.53,275.39,244.34,274.53,244.79Z" transform="translate(-73.22 -160.54)"/><path class="cls-4" d="M168.83,246.77a.9.9,0,0,1-.64-.83c-.07-.7-.2-1.4-.2-2.1q0-15.12,0-30.24a1.47,1.47,0,0,1,.16-.94c.63.49.36,1.2.36,1.8q0,13.9,0,27.8A22,22,0,0,0,168.83,246.77Z" transform="translate(-73.22 -160.54)"/><path class="cls-9" d="M207.54,192.42h32.78c0,.2.08.4.13.6a4.85,4.85,0,0,1-1.93.14l-31,0Z" transform="translate(-73.22 -160.54)"/><path class="cls-4" d="M179.34,251.74c-1.4,0-2.81,0-4.21-.1a5.14,5.14,0,0,1-4.62-3.21.36.36,0,0,1,.5-.25,23,23,0,0,0,8.43,1.15C180,250.16,179.3,250.94,179.34,251.74Z" transform="translate(-73.22 -160.54)"/><path class="cls-4" d="M259.35,191.84c0-.51.29-.66.71-.66l1.95,0c5,0,10,0,15,0,.76,0,1.28.12,1.25,1-5,0-9.93.09-14.9.09A11,11,0,0,1,259.35,191.84Z" transform="translate(-73.22 -160.54)"/><path class="cls-4" d="M258.72,237.23c-.57-1.91-1-3.58-1.57-5.17a4.38,4.38,0,0,1,1.43-5.2C259.54,228.25,259.65,233.88,258.72,237.23Z" transform="translate(-73.22 -160.54)"/><path class="cls-9" d="M122.32,192.42h25.93c0,.25.06.49.08.74h-24.7a3.07,3.07,0,0,1-1.44-.14Z" transform="translate(-73.22 -160.54)"/><path class="cls-4" d="M278.37,193c2.8,1.17,2.81,1.19,3.27,6,.31.31.57-.23.87-.06-.1,1.42-1.33,1.73-2.13,2.38-.6-.24-.57-.64-.57-1,0-.76,0-1.52,0-2.27a4,4,0,0,0-.93-2.84A2,2,0,0,1,278.37,193Z" transform="translate(-73.22 -160.54)"/><path class="cls-10" d="M184.23,204.88c.26-.39.67-.3,1-.3h17.52a5.39,5.39,0,0,1,.79.12,1,1,0,0,1-.75.23Z" transform="translate(-73.22 -160.54)"/><path class="cls-4" d="M257.08,196.06c.37-.17.6.09.81.3a1.06,1.06,0,0,0,1.17.18c.52.69,0,1.33,0,2.24C258,197.93,257.24,197.23,257.08,196.06Z" transform="translate(-73.22 -160.54)"/><path class="cls-4" d="M288.26,244.21c-1,.15-1.5-.34-1.64-1.3C287.88,243,288.07,243.19,288.26,244.21Z" transform="translate(-73.22 -160.54)"/><path class="cls-4" d="M92.69,214.75a2.48,2.48,0,0,1,.44-2A1.43,1.43,0,0,1,92.69,214.75Z" transform="translate(-73.22 -160.54)"/><path class="cls-4" d="M169.82,248.07c-.51-.19-.91-.46-.87-1.09A1,1,0,0,1,169.82,248.07Z" transform="translate(-73.22 -160.54)"/><path class="cls-9" d="M272.35,244.94a.9.9,0,0,1,1.08,0Q272.89,245.83,272.35,244.94Z" transform="translate(-73.22 -160.54)"/><path class="cls-9" d="M116.47,193.58A1.78,1.78,0,0,1,115,194C115.31,193.23,115.9,193.45,116.47,193.58Z" transform="translate(-73.22 -160.54)"/><path class="cls-4" d="M238.91,239.32c-.42-.13-.6-.39-.41-.83C239,238.59,239.14,238.86,238.91,239.32Z" transform="translate(-73.22 -160.54)"/><path class="cls-4" d="M93.2,212.09c-.12-.31-.07-.55.27-.67C93.84,211.83,93.63,212,93.2,212.09Z" transform="translate(-73.22 -160.54)"/><path class="cls-9" d="M262.76,244.43a.87.87,0,0,1,.45.49.26.26,0,0,1-.41.05C262.61,244.82,262.54,244.63,262.76,244.43Z" transform="translate(-73.22 -160.54)"/><path class="cls-11" d="M180.63,247.7l-1-.08C180,247.27,180.34,247.19,180.63,247.7Z" transform="translate(-73.22 -160.54)"/><path class="cls-4" d="M302.31,193.11a.29.29,0,0,1-.4,0C302,192.87,302.17,192.85,302.31,193.11Z" transform="translate(-73.22 -160.54)"/><path class="cls-9" d="M249.23,194.68a.29.29,0,0,1-.42-.16A.3.3,0,0,1,249.23,194.68Z" transform="translate(-73.22 -160.54)"/><path class="cls-9" d="M246,193.61a.24.24,0,0,1-.4-.07A.26.26,0,0,1,246,193.61Z" transform="translate(-73.22 -160.54)"/><path class="cls-4" d="M306.88,193.12h-.1C306.82,193,306.86,193,306.88,193.12Z" transform="translate(-73.22 -160.54)"/><path class="cls-1" d="M236.18,248a.86.86,0,0,1,.93.91c0,.38,0,.76,0,1.14q0,30,0,60c0,1.3-.24,2.41-1.52,2.94a7.9,7.9,0,0,1-3,.67c-.54,0-1.08-.06-1.62-.09a2.86,2.86,0,0,1,.11-1.37c1.54-.36,3.18,0,4.73-.2l.15-.16a.6.6,0,0,0,.09-.13,1.13,1.13,0,0,0,.06-.32c0-.37,0-.75,0-1.13Z" transform="translate(-73.22 -160.54)"/><path class="cls-1" d="M219.54,261.28a1.53,1.53,0,0,1,.68,1.54c0,1.47,0,2.94,0,4.41q0,17.61,0,35.22c0,.75.33,1.71-.8,2.05,0-.65.09-1.3.09-1.95q0-19.33,0-38.67C219.5,263,219.53,262.14,219.54,261.28Z" transform="translate(-73.22 -160.54)"/><path class="cls-1" d="M576.12,167.15a2,2,0,0,1-.4,2.2c-.61.76-1.18,1.55-1.87,2.26-4.27,4.4-8.32,9-12.65,13.37-3.07,3.08-6,6.31-8.92,9.51q-5,5.4-10,10.72c-3,3.19-6,6.42-9,9.63q-4.95,5.29-9.88,10.62c-1.73,1.87-3.62,3.6-5.19,5.63a21.24,21.24,0,0,0-1.6,3c-1-2.59-.94-2.91.81-4.76,3.92-4.14,7.87-8.24,11.71-12.45,2.89-3.17,5.85-6.28,8.79-9.4,5-5.3,9.92-10.64,14.91-15.94,2.91-3.08,5.77-6.2,8.67-9.28,4.36-4.62,8.67-9.28,13-13.91A3.21,3.21,0,0,1,576.12,167.15Z" transform="translate(-73.22 -160.54)"/><path class="cls-1" d="M171.83,276c.33.07.64.19.68.58s0,.76,0,1.14c0,7.62,0,15.24,0,22.85,0,.65.31,1.49-.72,1.74Q171.82,289.14,171.83,276Z" transform="translate(-73.22 -160.54)"/><path class="cls-4" d="M166.31,265.14c1.68.17,2.07.49,2.13,1.76a2.39,2.39,0,0,1-2.13,2.83Z" transform="translate(-73.22 -160.54)"/><path class="cls-6" d="M165,261.73c.28-.55.63-.44,1-.1Z" transform="translate(-73.22 -160.54)"/><path class="cls-1" d="M186.27,262.73c.63,0,.88.36.91.92s0,1,0,1.47q0,11.34,0,22.68c0,.32,0,.65,0,1-.08,1.36-.45,1.91-1.76,2.16a12.24,12.24,0,0,1-4.67.36,2.1,2.1,0,0,1,.2-1.43h5.27C186.25,280.72,186.26,271.72,186.27,262.73Z" transform="translate(-73.22 -160.54)"/><path class="cls-4" d="M175.2,258.37a16.46,16.46,0,0,1,4.09-.16A29.45,29.45,0,0,1,175.2,258.37Z" transform="translate(-73.22 -160.54)"/><path class="cls-1" d="M202.19,257.28c.79.32.69,1,.69,1.66V269c0,4.62,0,9.24,0,13.85,0,1.8-.48,2.34-2.25,2.8a9.48,9.48,0,0,1-3.23.08,1.83,1.83,0,0,1,.16-1.17c1.33-.26,2.75,0,4.1-.15.49-.58.29-1.2.29-1.77,0-7.72,0-15.43,0-23.15A5.73,5.73,0,0,1,202.19,257.28Z" transform="translate(-73.22 -160.54)"/><path class="cls-1" d="M156.91,295.36c.93.2,1.14,1,1.14,1.73,0,3.68,0,7.37,0,11.05a2,2,0,0,1-1.59,2c-1.85.27-3.64,1.13-5.58.68a2.73,2.73,0,0,1,0-1.72h5.87C156.82,304.43,156.86,299.89,156.91,295.36Z" transform="translate(-73.22 -160.54)"/><path class="cls-1" d="M252.81,304.34a1.5,1.5,0,0,1,.7,1.38c0,3.58,0,7.17,0,10.75,0,1.15-.28,1.5-1.48,1.81a13.45,13.45,0,0,1-5,.54,1.67,1.67,0,0,1,.2-1.26h5.08a2.87,2.87,0,0,0,.32-1.9c0-3.18,0-6.37,0-9.56A4.55,4.55,0,0,1,252.81,304.34Z" transform="translate(-73.22 -160.54)"/><path class="cls-1" d="M268.84,294.08c1,.08,1,.94,1.11,1.57a7.54,7.54,0,0,1,.09,1.78c0,2.88,0,5.76,0,8.63,0,2.22-.45,2.69-2.59,3.25a9.92,9.92,0,0,1-4,.22,3.84,3.84,0,0,1,.05-1.71h5.27Z" transform="translate(-73.22 -160.54)"/><path class="cls-1" d="M304.31,233.12a11.67,11.67,0,0,1-8.43-3.05c-3.77-3.56-6.71-8.41-4.6-15.13s7.39-10.56,14.19-10.12a12.51,12.51,0,0,1,9.58,4.92c3.47,4.69,4.8,10.07,1.3,16.47C313.7,231.05,309.47,232.83,304.31,233.12Zm8.8-8.11c.1,0,.27.05.29,0,.71-1.1,1.52-2.16,1.33-3.59a11.46,11.46,0,0,0-.46-5.92c.27-.47.14-.75-.39-.83l-1.09-1.52c.26-.81-.34-1.23-.82-1.62a10.45,10.45,0,0,0-4.58-2.35A3.79,3.79,0,0,0,306,209c-4.72.84-8.38,3.09-10.29,7.68a9.62,9.62,0,0,0-.92,5.06,39.25,39.25,0,0,1,.85,3.87,1.43,1.43,0,0,0,.37.88,14.36,14.36,0,0,0,2.58,2.47,10.73,10.73,0,0,0,14.09-2.25,1.65,1.65,0,0,0,.43-1.64Z" transform="translate(-73.22 -160.54)"/><path class="cls-4" d="M312.79,213.16c-.51.19-.81-.22-1.15-.44-5.77-3.66-13.42.89-14.31,7a10.89,10.89,0,0,0,1.57,7.45,4.58,4.58,0,0,0,2.25,1.76c4.16,1.8,8.68-.45,10.77-2.78.35-.39.59-.91,1.15-1.09a1.65,1.65,0,0,1-.43,1.64A10.73,10.73,0,0,1,298.55,229a14.36,14.36,0,0,1-2.58-2.47,1.43,1.43,0,0,1-.37-.88,39.25,39.25,0,0,0-.85-3.87,9.62,9.62,0,0,1,.92-5.06c1.91-4.59,5.57-6.84,10.29-7.68a3.79,3.79,0,0,1,1.43.2,10.45,10.45,0,0,1,4.58,2.35C312.45,211.93,313.05,212.35,312.79,213.16Z" transform="translate(-73.22 -160.54)"/><path class="cls-4" d="M313.11,225a8.45,8.45,0,0,1,1.62-3.58c.19,1.43-.62,2.49-1.33,3.59C313.38,225.06,313.21,225,313.11,225Z" transform="translate(-73.22 -160.54)"/><path class="cls-4" d="M314.27,215.51" transform="translate(-73.22 -160.54)"/></svg>